<svg xmlns="http://www.w3.org/2000/svg" xmlns:xlink="http://www.w3.org/1999/xlink" viewBox="0 0 1920.005 1080.005" height="4081.908" width="7256.71"><defs><filter id="f" x="0" width="1" y="0" height="1" color-interpolation-filters="sRGB"><feGaussianBlur stdDeviation=".001"/></filter><filter id="l" x="-.019" width="1.038" y="-.02" height="1.04" color-interpolation-filters="sRGB"><feTurbulence type="fractalNoise" numOctaves="5" baseFrequency="1" result="result0"/><feConvolveMatrix kernelMatrix="-2 0 -2 0 -10 0 -2 0 -2" order="3 3" result="result5"/><feColorMatrix result="result4" values="0" type="saturate" in="result5"/><feComposite in2="result4" in="SourceGraphic" operator="arithmetic" k1="1.5" k2=".5" k3=".5" result="result2"/><feBlend result="result6" in2="result4"/><feComposite in2="SourceGraphic" in="result6" operator="in" result="result3"/></filter><filter id="j" x="0" width="1" y="0" height="1" color-interpolation-filters="sRGB"><feTurbulence type="fractalNoise" numOctaves="5" baseFrequency="1" result="result0"/><feConvolveMatrix kernelMatrix="-2 0 -2 0 -10 0 -2 0 -2" order="3 3" result="result5"/><feColorMatrix result="result4" values="0" type="saturate" in="result5"/><feComposite in2="result4" in="SourceGraphic" operator="arithmetic" k1="1.5" k2=".5" k3=".5" result="result2"/><feBlend result="result6" in2="result4"/><feComposite in2="SourceGraphic" in="result6" operator="in" result="result3"/><feGaussianBlur stdDeviation=".042"/></filter><filter id="v" color-interpolation-filters="sRGB"><feTurbulence type="fractalNoise" numOctaves="5" baseFrequency="1" result="result0"/><feConvolveMatrix kernelMatrix="-2 0 -2 0 -10 0 -2 0 -2" order="3 3" result="result5"/><feColorMatrix result="result4" values="0" type="saturate" in="result5"/><feComposite in2="result4" in="SourceGraphic" operator="arithmetic" k1="1.5" k2=".5" k3=".5" result="result2"/><feBlend result="result6" in2="result4"/><feComposite in2="SourceGraphic" in="result6" operator="in" result="result3"/></filter><filter id="u" color-interpolation-filters="sRGB"><feTurbulence type="fractalNoise" numOctaves="5" baseFrequency="1" result="result0"/><feConvolveMatrix kernelMatrix="-2 0 -2 0 -10 0 -2 0 -2" order="3 3" result="result5"/><feColorMatrix result="result4" values="0" type="saturate" in="result5"/><feComposite in2="result4" in="SourceGraphic" operator="arithmetic" k1="1.5" k2=".5" k3=".5" result="result2"/><feBlend result="result6" in2="result4"/><feComposite in2="SourceGraphic" in="result6" operator="in" result="result3"/></filter><filter id="r" color-interpolation-filters="sRGB"><feTurbulence type="fractalNoise" numOctaves="5" baseFrequency="1" result="result0"/><feConvolveMatrix kernelMatrix="-2 0 -2 0 -10 0 -2 0 -2" order="3 3" result="result5"/><feColorMatrix result="result4" values="0" type="saturate" in="result5"/><feComposite in2="result4" in="SourceGraphic" operator="arithmetic" k1="1.5" k2=".5" k3=".5" result="result2"/><feBlend result="result6" in2="result4"/><feComposite in2="SourceGraphic" in="result6" operator="in" result="result3"/></filter><filter id="s" color-interpolation-filters="sRGB"><feTurbulence type="fractalNoise" numOctaves="5" baseFrequency="1" result="result0"/><feConvolveMatrix kernelMatrix="-2 0 -2 0 -10 0 -2 0 -2" order="3 3" result="result5"/><feColorMatrix result="result4" values="0" type="saturate" in="result5"/><feComposite in2="result4" in="SourceGraphic" operator="arithmetic" k1="1.5" k2=".5" k3=".5" result="result2"/><feBlend result="result6" in2="result4"/><feComposite in2="SourceGraphic" in="result6" operator="in" result="result3"/></filter><filter id="t" x="-.001" width="1.001" y="-.002" height="1.005" color-interpolation-filters="sRGB"><feGaussianBlur stdDeviation=".474"/></filter><filter id="o" color-interpolation-filters="sRGB"><feTurbulence type="fractalNoise" numOctaves="5" baseFrequency="1" result="result0"/><feConvolveMatrix kernelMatrix="-2 0 -2 0 -10 0 -2 0 -2" order="3 3" result="result5"/><feColorMatrix result="result4" values="0" type="saturate" in="result5"/><feComposite in2="result4" in="SourceGraphic" operator="arithmetic" k1="1.5" k2=".5" k3=".5" result="result2"/><feBlend result="result6" in2="result4"/><feComposite in2="SourceGraphic" in="result6" operator="in" result="result3"/></filter><filter id="p" color-interpolation-filters="sRGB"><feTurbulence type="fractalNoise" numOctaves="5" baseFrequency="1" result="result0"/><feConvolveMatrix kernelMatrix="-2 0 -2 0 -10 0 -2 0 -2" order="3 3" result="result5"/><feColorMatrix result="result4" values="0" type="saturate" in="result5"/><feComposite in2="result4" in="SourceGraphic" operator="arithmetic" k1="1.5" k2=".5" k3=".5" result="result2"/><feBlend result="result6" in2="result4"/><feComposite in2="SourceGraphic" in="result6" operator="in" result="result3"/></filter><filter id="n" color-interpolation-filters="sRGB"><feTurbulence type="fractalNoise" numOctaves="5" baseFrequency="1" result="result0"/><feConvolveMatrix kernelMatrix="-2 0 -2 0 -10 0 -2 0 -2" order="3 3" result="result5"/><feColorMatrix result="result4" values="0" type="saturate" in="result5"/><feComposite in2="result4" in="SourceGraphic" operator="arithmetic" k1="1.5" k2=".5" k3=".5" result="result2"/><feBlend result="result6" in2="result4"/><feComposite in2="SourceGraphic" in="result6" operator="in" result="result3"/></filter><filter id="k" x="-.284" width="1.569" y="-.299" height="1.598" color-interpolation-filters="sRGB"><feGaussianBlur stdDeviation="122.309"/></filter><linearGradient id="c"><stop offset="0" stop-color="#8d7bb7"/><stop offset="1" stop-color="#573161" stop-opacity="0"/></linearGradient><linearGradient id="b"><stop offset="0" stop-color="#b575d0"/><stop offset="1" stop-color="#b575d0" stop-opacity="0"/></linearGradient><linearGradient id="d"><stop offset="0" stop-color="#eef1eb"/><stop offset="1" stop-color="#fecaca"/></linearGradient><linearGradient id="a"><stop offset="0" stop-color="#e22456"/><stop offset="1" stop-color="#ea3364"/></linearGradient><linearGradient xlink:href="#a" id="g" gradientUnits="userSpaceOnUse" x1="817.645" y1="548.571" x2="815.275" y2="282.197" gradientTransform="translate(556.53 -101.75) scale(3.77953)"/><linearGradient xlink:href="#b" id="m" x1="2278.367" y1="691.001" x2="970.98" y2="1050.345" gradientUnits="userSpaceOnUse"/><linearGradient xlink:href="#c" id="q" x1="1026.704" y1="649.343" x2="177.923" y2="952.028" gradientUnits="userSpaceOnUse"/><linearGradient xlink:href="#a" id="h" gradientUnits="userSpaceOnUse" gradientTransform="translate(556.53 -101.75) scale(3.77953)" x1="817.645" y1="548.571" x2="818.509" y2="131.859"/><linearGradient xlink:href="#a" id="e" gradientUnits="userSpaceOnUse" gradientTransform="translate(556.53 -101.75) scale(3.77953)" x1="817.645" y1="548.571" x2="815.275" y2="282.197"/><radialGradient xlink:href="#d" id="i" cx="998.879" cy="619.259" fx="998.879" fy="619.259" r="414.456" gradientTransform="matrix(1 0 0 .97361 0 16.34)" gradientUnits="userSpaceOnUse"/></defs><path d="M2529.115 1304.95c-.016 0-.028.012-.033.06-.043.387-.083.775-.125 1.162.084-.01.168-.01.252-.014.337-.02.02-1.176-.094-1.209z" transform="translate(-.13 -.13) scale(.26458)" fill="url(#e)" stroke="#712b2b" stroke-width="1.002" stroke-opacity=".064" filter="url(#f)"/><path d="M2529.875 1288.5c1.653-.169 3.465 3.822 5.408 13.736 4.486 22.885 14.698 45.366 13.46 68.653-.316 5.917-11.427 3.422-17.325 3.984-3.273.313-6.553.497-9.838.617-1.51 12.267-2.196 9.721-2.182.066-8.238.232-16.499.115-24.732.488-57.276 2.6-114.794 4.912-171.494 13.995-67.203 10.764-80.939-56.212-13.797-67.35 60.009-9.955 120.916-12.535 181.58-15.293 11.105-.505 22.233-.466 33.336-.974 1.553-10.426 3.433-17.703 5.584-17.922z" transform="translate(-.13 -.13) scale(.26458)" fill="url(#g)" stroke="#712b2b" stroke-width="1.002" stroke-opacity=".064" filter="url(#f)"/><path d="M.5.5v4081.89h7256.693V.5z" transform="translate(-.13 -.13) scale(.26458)" fill="url(#h)" filter="url(#f)"/><ellipse style="mix-blend-mode:normal" cx="1000.355" cy="626.723" rx="411.401" ry="410.881" fill="#fce7b1" stroke="#71492b" stroke-width=".265" stroke-opacity=".064" transform="translate(-.13 -.13)" opacity=".999"/><g style="mix-blend-mode:multiply"><ellipse style="mix-blend-mode:normal" cx="998.879" cy="619.259" rx="414.354" ry="403.418" transform="matrix(.9947 0 0 1.03287 5.147 -8.345)" fill="url(#i)" stroke="#712b2b" stroke-width=".264" stroke-opacity=".064" filter="url(#j)" opacity=".531"/></g><g transform="translate(-.13 -.13)" filter="url(#k)"><ellipse cx="998.879" cy="619.259" rx="414.354" ry="403.418" transform="matrix(1.24602 0 0 1.21601 -245.74 -133.767)" opacity=".635" fill="#fbcd9b" stroke="#712b2b" stroke-width=".264" stroke-opacity=".064" filter="url(#l)"/></g><path d="M1574.678 664.286l-76.037 31.779s1.105 13.15-30.64 19.081c-31.744 5.932-58.711-34.364-91.257 2.459-32.546 36.824-78.326 61.206-78.326 61.206s-69.235 10.666-86.925 18.181c-17.69 7.516-53.112 29.918-53.112 29.918s-70.492 47.065-82.56 50.947c-12.068 3.882-110.065 15.571-110.065 15.571S821.15 917.08 807.614 920.561c-13.536 3.48-144.498 47.915-144.498 47.915s-56.289 18.504-74.31 34.521c-13.152 11.69-81.279 54.614-117.211 77.006h1448.407V879.766l-32.418-10.161-51.52-51.705s-17.014-18.795-34.318-27.402c-17.304-8.608-75.228-28.642-75.228-28.642l-46.34-41.5z" fill="#4a2865"/><path d="M1498.771 696.195l69.568 62.005-59.7 28.13 146.027-11.884-51.517 59.72 133.635 1.953-89.728 36.717-57.004-.899-164.444-59.301 81.092 106.539-236.799-56.93 150.113 102.63-197.204 7.238-43.08 7.123 272.128 51.223-56.92 53.291 525.194-10.497 3.353-150.446-70.015-23.426s-8.293-66.235-60.028-80.44c-51.735-14.205-82.809-22.188-82.809-22.188l-69.605-69.606-70.982-51.198-22.097-15.79z" fill="url(#m)" transform="translate(-.13 -.13)"/><path style="mix-blend-mode:normal" d="M1547.819 660.029l26.859 4.257 105.5 56.07 46.34 41.5 85.558 35.544 75.508 72.205 32.418 10.161 3.353 42.91-70.015-23.425-25.591-60.5-117.246-42.128-69.605-69.606z" fill="#ebdaf3"/><g opacity=".381" fill="#4f305e" fill-rule="evenodd"><path d="M5952.03 2511.18l-287.383 120.107s4.177 49.699-115.803 72.12c-119.98 22.42-221.903-129.883-344.91 9.292-123.008 139.176-296.038 231.33-296.038 231.33s-261.674 40.313-328.533 68.717c-66.858 28.404-200.74 113.074-200.74 113.074s-266.424 177.885-312.035 192.557c-45.611 14.672-415.994 58.852-415.994 58.852s-546.544 89.393-597.703 102.548c-51.16 13.156-546.135 181.094-546.135 181.094s-212.745 69.939-280.856 130.477c-49.71 44.183-307.196 206.412-443.004 291.043h5474.297v-756.8l-122.527-38.405-194.719-195.42s-64.305-71.034-129.707-103.567c-65.402-32.532-284.328-108.252-284.328-108.252l-175.139-156.85z" transform="translate(-.13 -.13) scale(.26458)" filter="url(#n)"/><path d="M1498.771 696.195l69.568 62.005-59.7 28.13 146.027-11.884-51.517 59.72 133.635 1.953-89.728 36.717-57.004-.899-164.444-59.301 81.092 106.539-236.799-56.93 150.113 102.63-197.204 7.238-43.08 7.123 272.128 51.223-56.92 53.291 525.194-10.497 3.353-150.446-70.015-23.426s-8.293-66.235-60.028-80.44c-51.735-14.205-82.809-22.188-82.809-22.188l-69.605-69.606-70.982-51.198-22.097-15.79z" filter="url(#o)" transform="translate(-.13 -.13)"/><path d="M1547.949 660.159l26.859 4.257 105.5 56.07 46.34 41.5 85.558 35.543 75.508 72.205 32.418 10.162 3.353 42.91-70.015-23.425-25.591-60.5-117.246-42.128-69.605-69.606z" filter="url(#p)" transform="translate(-.13 -.13)"/></g><path d="M477.803 593.23c-10.362-.071-10.778 8.546-27.879 8.546-26.694 0-50.79 32.556-50.79 32.556L297.01 722.258l-73.275 31.414-61.884 52.144-85.892 28.83-75.957 11.34v234.017h1316.096c-21.971-17.075-76.603-47.79-105.508-68.785-33.497-24.33-94.679-69.275-209.941-134.133-115.263-64.859-55.779-18.8-103.402-35.443-47.623-16.643-101.389-13.807-161.376-45.536-59.988-31.73-70.618-50.213-92.963-60.987-22.345-10.774-33.044-39.684-54.05-71.882-21.006-32.198-32.853-34.799-79.527-58.629-16.774-8.564-25.716-11.338-31.528-11.378z" fill="#3d1b53"/><path style="mix-blend-mode:normal" d="M477.933 593.36l-9.172 123.011 79.892 38.579-76.716 39.65-97.93-31.88 64.712 72.217 18.709 178.335 162.66-127.994 207.136 21.048-44.38-84.316 167.31 67.01 22.939 79.97 150.855 60.724 84.02 55.641 108.26-5.223-310.847-204.73-74.212-40.905-23.298 8.346-64.25-17.798-118.072-32.312-106.451-74.787-58.27-95.846z" fill="url(#q)" transform="translate(-.13 -.13)"/><path d="M476.638 604.21s70.55 18.823 94.623 49.61c24.073 30.788 34.527 65.877 42.825 74.175 8.298 8.299 26.208 10.188 37.905 21.884 11.696 11.697 60.236 44.386 60.236 44.386l91.827 36.062 58.867 31.5-2.11-20.601-74.553-31.407-68.86-21.581-71.404-50.791-23.789-15.627-55.164-97.79-76.975-29.007-13.955-1.167z" fill="none" stroke="#000" stroke-width=".265" filter="url(#k)" transform="translate(-.13 -.13)"/><g opacity=".427" fill="#492666"><path d="M1806.36 2242.621c-39.162-.27-40.734 32.299-105.368 32.299-100.89 0-191.96 123.045-191.96 123.045l-385.983 332.32-276.944 118.73-233.892 197.079-324.633 108.965L.5 3197.919v884.472h4974.219c-83.039-64.533-289.52-180.624-398.77-259.975-126.601-91.956-357.841-261.825-793.478-506.959-435.637-245.133-210.816-71.053-390.809-133.957-179.993-62.904-383.203-52.185-609.928-172.106-226.724-119.92-266.9-189.778-351.355-230.5-84.454-40.721-124.891-149.986-204.283-271.68-79.392-121.693-124.168-131.524-300.574-221.589-63.396-32.367-97.194-42.853-119.163-43.004z" transform="translate(-.13 -.13) scale(.26458)" filter="url(#r)"/><path d="M477.933 593.36l-9.172 123.011 79.892 38.579-76.716 39.65-97.93-31.88 64.712 72.217 18.709 178.335 162.66-127.994 207.136 21.048-44.38-84.316 167.31 67.01 22.939 79.97 150.855 60.724 84.02 55.641 108.26-5.223-310.847-204.73-74.212-40.905-23.298 8.346-64.25-17.798-118.072-32.312-106.451-74.787-58.27-95.846z" filter="url(#s)" transform="translate(-.13 -.13)"/></g><g fill="#120a22"><path d="M.002 1080.003c74.523-74.523 140.045-37.525 140.045-37.525s36.187 20.424 71.562 0c35.376-20.424 81.235-80.104 120.514-69.579 39.279 10.525 84.449-22.628 84.449-22.628s11.399-14.549 37.15-21.45c25.753-6.9 36.625 42.462 97.547 26.138 60.921-16.324 45.387-53.348 94.111-25.217 48.724 28.131 92.108 92.108 92.108 92.108l65.163 65.163zm1923.353-157.326s-59.025 5.235-93.22 24.978c-34.195 19.742-66.245 66.245-66.245 66.245l-74.251 42.87-30.454-18.554-24.113-48.65-25.661 95.23-17.368-64.816-9.552 35.65-18.528-18.527-14.498 25.111-70.123 18.79 440.66-1.001z"/></g><g transform="translate(-.13 -.13)" opacity=".593" filter="url(#t)" fill="#3b1f53"><path d="M.132 1080.132c74.523-74.522 140.045-37.524 140.045-37.524s36.187 20.424 71.562 0c35.376-20.424 81.235-80.104 120.514-69.579 39.279 10.525 84.449-22.628 84.449-22.628s11.399-14.549 37.15-21.45c25.753-6.9 36.625 42.462 97.547 26.138 60.921-16.324 45.387-53.348 94.111-25.217 48.724 28.131 92.108 92.108 92.108 92.108l65.163 65.163z" filter="url(#u)"/><path d="M1923.485 922.807s-59.025 5.235-93.22 24.978c-34.195 19.742-66.245 66.245-66.245 66.245l-74.251 42.87-30.454-18.554-24.113-48.65-25.661 95.23-17.368-64.816-9.553 35.65-18.527-18.527-14.498 25.111-70.123 18.79 440.66-1.001z" filter="url(#v)"/></g></svg>