<?xml version="1.0" encoding="UTF-8"?>
<svg id="s" width="595.66mm" height="302.9mm" version="1.1" viewBox="0 0 595.66 302.9" xmlns="http://www.w3.org/2000/svg" xmlns:cc="http://creativecommons.org/ns#" xmlns:dc="http://purl.org/dc/elements/1.1/" xmlns:osb="http://www.openswatchbook.org/uri/2009/osb" xmlns:rdf="http://www.w3.org/1999/02/22-rdf-syntax-ns#" xmlns:xlink="http://www.w3.org/1999/xlink">
 <defs id="t">
  <linearGradient id="g">
   <stop id="u" stop-color="#e22456" offset="0"/>
   <stop id="v" stop-color="#ea3364" offset="1"/>
  </linearGradient>
  <filter id="a" x="-1.2133e-6" y="-2.1569e-6" width="1" height="1" color-interpolation-filters="sRGB">
   <feGaussianBlur id="w" stdDeviation="0.00097061363"/>
  </filter>
  <linearGradient id="b" x1="817.64" x2="815.27" y1="548.57" y2="282.2" gradientTransform="matrix(3.7795 0 0 3.7795 556.53 -101.75)" gradientUnits="userSpaceOnUse" xlink:href="#g"/>
  <filter id="h" x="-.019245" y="-.019767" width="1.0385" height="1.0395" color-interpolation-filters="sRGB">
   <feTurbulence id="x" baseFrequency="1" numOctaves="5" result="result0" type="fractalNoise"/>
   <feConvolveMatrix id="y" kernelMatrix="-2 0 -2 0 -10 0 -2 0 -2 " order="3 3" result="result5"/>
   <feColorMatrix id="z" in="result5" result="result4" type="saturate" values="0"/>
   <feComposite id="aa" in="SourceGraphic" in2="result4" k1="1.5" k2="0.5" k3="0.5" operator="arithmetic" result="result2"/>
   <feBlend id="ab" in2="result4" result="result6"/>
   <feComposite id="ac" in="result6" in2="SourceGraphic" operator="in" result="result3"/>
  </filter>
  <filter id="r" x="-.00089189" y="-.00091607" width="1.0018" height="1.0018" color-interpolation-filters="sRGB">
   <feGaussianBlur id="ad" stdDeviation="0.30796639"/>
  </filter>
  <filter id="q" x="-.00012261" y="-.00012594" width="1.0002" height="1.0003" color-interpolation-filters="sRGB">
   <feTurbulence id="ae" baseFrequency="1" numOctaves="5" result="result0" type="fractalNoise"/>
   <feConvolveMatrix id="af" kernelMatrix="-2 0 -2 0 -10 0 -2 0 -2 " order="3 3" result="result5"/>
   <feColorMatrix id="ag" in="result5" result="result4" type="saturate" values="0"/>
   <feComposite id="ah" in="SourceGraphic" in2="result4" k1="1.5" k2="0.5" k3="0.5" operator="arithmetic" result="result2"/>
   <feBlend id="ai" in2="result4" result="result6"/>
   <feComposite id="aj" in="result6" in2="SourceGraphic" operator="in" result="result3"/>
   <feGaussianBlur id="ak" stdDeviation="0.04233782"/>
  </filter>
  <radialGradient id="d" cx="998.88" cy="619.26" r="414.46" gradientTransform="matrix(1 0 0 .97361 0 16.341)" gradientUnits="userSpaceOnUse">
   <stop id="al" stop-color="#eef1eb" offset="0"/>
   <stop id="am" stop-color="#fecaca" offset="1"/>
  </radialGradient>
  <filter id="p" color-interpolation-filters="sRGB">
   <feTurbulence id="an" baseFrequency="1" numOctaves="5" result="result0" type="fractalNoise"/>
   <feConvolveMatrix id="ao" kernelMatrix="-2 0 -2 0 -10 0 -2 0 -2 " order="3 3" result="result5"/>
   <feColorMatrix id="ap" in="result5" result="result4" type="saturate" values="0"/>
   <feComposite id="aq" in="SourceGraphic" in2="result4" k1="1.5" k2="0.5" k3="0.5" operator="arithmetic" result="result2"/>
   <feBlend id="ar" in2="result4" result="result6"/>
   <feComposite id="as" in="result6" in2="SourceGraphic" operator="in" result="result3"/>
  </filter>
  <filter id="o" color-interpolation-filters="sRGB">
   <feTurbulence id="at" baseFrequency="1" numOctaves="5" result="result0" type="fractalNoise"/>
   <feConvolveMatrix id="au" kernelMatrix="-2 0 -2 0 -10 0 -2 0 -2 " order="3 3" result="result5"/>
   <feColorMatrix id="av" in="result5" result="result4" type="saturate" values="0"/>
   <feComposite id="aw" in="SourceGraphic" in2="result4" k1="1.5" k2="0.5" k3="0.5" operator="arithmetic" result="result2"/>
   <feBlend id="ax" in2="result4" result="result6"/>
   <feComposite id="ay" in="result6" in2="SourceGraphic" operator="in" result="result3"/>
  </filter>
  <filter id="n" color-interpolation-filters="sRGB">
   <feTurbulence id="az" baseFrequency="1" numOctaves="5" result="result0" type="fractalNoise"/>
   <feConvolveMatrix id="ba" kernelMatrix="-2 0 -2 0 -10 0 -2 0 -2 " order="3 3" result="result5"/>
   <feColorMatrix id="bb" in="result5" result="result4" type="saturate" values="0"/>
   <feComposite id="bc" in="SourceGraphic" in2="result4" k1="1.5" k2="0.5" k3="0.5" operator="arithmetic" result="result2"/>
   <feBlend id="bd" in2="result4" result="result6"/>
   <feComposite id="be" in="result6" in2="SourceGraphic" operator="in" result="result3"/>
  </filter>
  <filter id="m" color-interpolation-filters="sRGB">
   <feTurbulence id="bf" baseFrequency="1" numOctaves="5" result="result0" type="fractalNoise"/>
   <feConvolveMatrix id="bg" kernelMatrix="-2 0 -2 0 -10 0 -2 0 -2 " order="3 3" result="result5"/>
   <feColorMatrix id="bh" in="result5" result="result4" type="saturate" values="0"/>
   <feComposite id="bi" in="SourceGraphic" in2="result4" k1="1.5" k2="0.5" k3="0.5" operator="arithmetic" result="result2"/>
   <feBlend id="bj" in2="result4" result="result6"/>
   <feComposite id="bk" in="result6" in2="SourceGraphic" operator="in" result="result3"/>
  </filter>
  <filter id="l" x="-.00059117" y="-.0023027" width="1.0012" height="1.0046" color-interpolation-filters="sRGB">
   <feGaussianBlur id="bl" stdDeviation="0.47375862"/>
  </filter>
  <filter id="k" color-interpolation-filters="sRGB">
   <feTurbulence id="bm" baseFrequency="1" numOctaves="5" result="result0" type="fractalNoise"/>
   <feConvolveMatrix id="bn" kernelMatrix="-2 0 -2 0 -10 0 -2 0 -2 " order="3 3" result="result5"/>
   <feColorMatrix id="bo" in="result5" result="result4" type="saturate" values="0"/>
   <feComposite id="bp" in="SourceGraphic" in2="result4" k1="1.5" k2="0.5" k3="0.5" operator="arithmetic" result="result2"/>
   <feBlend id="bq" in2="result4" result="result6"/>
   <feComposite id="br" in="result6" in2="SourceGraphic" operator="in" result="result3"/>
  </filter>
  <filter id="j" color-interpolation-filters="sRGB">
   <feTurbulence id="bs" baseFrequency="1" numOctaves="5" result="result0" type="fractalNoise"/>
   <feConvolveMatrix id="bt" kernelMatrix="-2 0 -2 0 -10 0 -2 0 -2 " order="3 3" result="result5"/>
   <feColorMatrix id="bu" in="result5" result="result4" type="saturate" values="0"/>
   <feComposite id="bv" in="SourceGraphic" in2="result4" k1="1.5" k2="0.5" k3="0.5" operator="arithmetic" result="result2"/>
   <feBlend id="bw" in2="result4" result="result6"/>
   <feComposite id="bx" in="result6" in2="SourceGraphic" operator="in" result="result3"/>
  </filter>
  <filter id="i" color-interpolation-filters="sRGB">
   <feTurbulence id="by" baseFrequency="1" numOctaves="5" result="result0" type="fractalNoise"/>
   <feConvolveMatrix id="bz" kernelMatrix="-2 0 -2 0 -10 0 -2 0 -2 " order="3 3" result="result5"/>
   <feColorMatrix id="ca" in="result5" result="result4" type="saturate" values="0"/>
   <feComposite id="cb" in="SourceGraphic" in2="result4" k1="1.5" k2="0.5" k3="0.5" operator="arithmetic" result="result2"/>
   <feBlend id="cc" in2="result4" result="result6"/>
   <feComposite id="cd" in="result6" in2="SourceGraphic" operator="in" result="result3"/>
  </filter>
  <linearGradient id="f" x1="2278.4" x2="970.98" y1="691" y2="1050.3" gradientTransform="matrix(.31024 0 0 .28046 -82.866 1.8586)" gradientUnits="userSpaceOnUse">
   <stop id="ce" stop-color="#b575d0" offset="0"/>
   <stop id="cf" stop-color="#b575d0" stop-opacity="0" offset="1"/>
  </linearGradient>
  <linearGradient id="e" x1="1026.7" x2="177.92" y1="649.34" y2="952.03" gradientTransform="matrix(.31024 0 0 .28046 -82.866 1.8586)" gradientUnits="userSpaceOnUse">
   <stop id="cg" stop-color="#8d7bb7" offset="0"/>
   <stop id="ch" stop-color="#573161" stop-opacity="0" offset="1"/>
  </linearGradient>
  <filter id="c" x="-.28428" y="-.29919" width="1.5686" height="1.5984" color-interpolation-filters="sRGB">
   <feGaussianBlur id="ci" stdDeviation="122.30922"/>
  </filter>
 </defs>
 <metadata id="cj">
  <rdf:RDF>
   <cc:Work rdf:about="">
    <dc:format>image/svg+xml</dc:format>
    <dc:type rdf:resource="http://purl.org/dc/dcmitype/StillImage"/>
    <dc:title/>
   </cc:Work>
  </rdf:RDF>
 </metadata>
 <g id="ck" transform="translate(82.826 -.83674)" display="none" style="mix-blend-mode:normal">
  <path id="cl" transform="matrix(.082084 0 0 .074205 -82.866 .80029)" d="m2529.1 1304.9c-0.016 0-0.028 0.013-0.033 0.061-0.043 0.3872-0.083 0.7748-0.125 1.1621 0.084-0.01 0.168-0.01 0.252-0.014 0.3363-0.021 0.019-1.1766-0.094-1.209z" display="inline" fill="url(#b)" filter="url(#a)" stroke="#712b2b" stroke-opacity=".063956" stroke-width="1.0016"/>
  <path id="cm" transform="matrix(.082084 0 0 .074205 -82.866 .80029)" d="m2529.9 1288.5c1.6531-0.1687 3.4647 3.8225 5.4082 13.736 4.4862 22.884 14.698 45.366 13.459 68.652-0.3148 5.9168-11.426 3.4219-17.324 3.9843-3.273 0.3126-6.5532 0.4969-9.8379 0.6172-1.5109 12.267-2.1962 9.7208-2.1817 0.066-8.2387 0.232-16.499 0.1146-24.732 0.4883-57.276 2.6001-114.79 4.912-171.49 13.994-67.202 10.764-80.938-56.212-13.797-67.35 60.009-9.9546 120.92-12.535 181.58-15.293 11.105-0.5049 22.233-0.4663 33.336-0.9746 1.5532-10.426 3.4335-17.702 5.584-17.922z" display="inline" fill="url(#b)" filter="url(#a)" stroke="#712b2b" stroke-opacity=".063956" stroke-width="1.0016"/>
  <path id="cn" transform="matrix(.082084 0 0 .074205 -82.866 .80029)" d="m0.5 0.5v4081.9h7256.7v-4081.9z" display="inline" fill="#e22456" filter="url(#a)"/>
 </g>
 <g id="co" transform="translate(82.826 -.83674)" display="none">
  <path id="cp" transform="matrix(.082084 0 0 .074205 -82.866 .80029)" d="m2529.1 1304.9c-0.016 0-0.028 0.013-0.033 0.061-0.043 0.3872-0.083 0.7748-0.125 1.1621 0.084-0.01 0.168-0.01 0.252-0.014 0.3363-0.021 0.019-1.1766-0.094-1.209z" display="inline" fill="url(#b)" filter="url(#a)" stroke="#712b2b" stroke-opacity=".063956" stroke-width="1.0016"/>
  <path id="cq" transform="matrix(.082084 0 0 .074205 -82.866 .80029)" d="m2529.9 1288.5c1.6531-0.1687 3.4647 3.8225 5.4082 13.736 4.4862 22.884 14.698 45.366 13.459 68.652-0.3148 5.9168-11.426 3.4219-17.324 3.9843-3.273 0.3126-6.5532 0.4969-9.8379 0.6172-1.5109 12.267-2.1962 9.7208-2.1817 0.066-8.2387 0.232-16.499 0.1146-24.732 0.4883-57.276 2.6001-114.79 4.912-171.49 13.994-67.202 10.764-80.938-56.212-13.797-67.35 60.009-9.9546 120.92-12.535 181.58-15.293 11.105-0.5049 22.233-0.4663 33.336-0.9746 1.5532-10.426 3.4335-17.702 5.584-17.922z" display="inline" fill="url(#b)" filter="url(#a)" stroke="#712b2b" stroke-opacity=".063956" stroke-width="1.0016"/>
  <path id="cr" transform="matrix(.082136 0 0 .074671 -83.061 .092712)" d="m0.5 0.5v4081.9h7256.7v-4081.9z" display="inline" fill="#77e0e0" filter="url(#a)"/>
 </g>
 <g id="cs" transform="translate(82.826 -.83674)" display="none">
  <ellipse id="ct" cx="226.14" cy="178.83" rx="115.36" ry="115.16" display="inline" fill="#fac589" opacity=".51536" stroke="#712b2b" stroke-opacity=".063956" stroke-width=".074732"/>
 </g>
 <g id="cu" transform="translate(82.826 -.83674)" display="none" filter="url(#r)">
  <ellipse id="cv" cx="227.48" cy="176.57" rx="116.02" ry="115.24" fill="#faf27f" stroke="#712b2b" stroke-opacity=".063956" stroke-width=".074554"/>
 </g>
 <g id="cw" transform="translate(82.826 -.83674)" display="none" opacity=".99889" style="mix-blend-mode:normal">
  <ellipse id="cx" cx="227.45" cy="176.57" rx="116.79" ry="115.24" fill="#fce7b1" opacity="1" stroke="#71492b" stroke-opacity=".063956" stroke-width=".074775" style="mix-blend-mode:normal"/>
 </g>
 <g id="cy" transform="translate(82.826 -.83674)" display="none" opacity=".53108" style="mix-blend-mode:multiply">
  <ellipse id="cz" transform="matrix(.28238 0 0 .28556 -54.504 -.086139)" cx="998.88" cy="619.26" rx="414.35" ry="403.42" fill="url(#d)" filter="url(#q)" opacity="1" stroke="#712b2b" stroke-opacity=".063956" stroke-width=".26362" style="mix-blend-mode:normal"/>
 </g>
 <g id="da" transform="translate(82.826 -.83674)" display="none" filter="url(#c)">
  <ellipse id="db" transform="matrix(.46824 0 0 .33963 -248.63 -35.839)" cx="998.88" cy="619.26" rx="414.35" ry="403.42" fill="#fbcd9b" filter="url(#h)" opacity=".63519" stroke="#712b2b" stroke-opacity=".063956" stroke-width=".26362"/>
 </g>
 <g id="dc" transform="translate(82.826 -.83674)" display="none">
  <text id="dd" transform="scale(.97601 1.0246)" x="406.30029" y="118.3507" display="inline" fill="#ffffff" font-family="'DejaVu Sans'" font-size="5.2663px" font-weight="bold" letter-spacing="-.078045px" stroke-width=".16212" style="line-height:1.38" xml:space="preserve"><tspan id="de" x="406.30029" y="118.3507" dx="0">We make business websites</tspan><tspan id="df" x="406.30029" y="125.61818">to help you grow your</tspan><tspan id="dg" x="406.30029" y="132.88567">online business.</tspan></text>
 </g>
 <g id="dh" transform="translate(82.826 -.83674)" display="none">
  <text id="di" transform="scale(.75993 1.3159)" x="-65.354065" y="71.375023" display="inline" fill="#ffffff" font-family="'DejaVu Sans'" font-size="27.006px" font-weight="bold" letter-spacing="-.39101px" stroke-width=".67514" word-spacing="0px" style="line-height:0.85" xml:space="preserve"><tspan id="dj" x="-65.354065" y="71.375023"> </tspan><tspan id="dk" x="-65.354065" y="94.649498" dx="0">BUSINESS</tspan><tspan id="dl" x="-65.354065" y="117.92397">WEBSITES</tspan></text>
 </g>
 <g id="dm" transform="translate(82.826 -.83674)" display="none">
  <g>
   <text id="dn" transform="scale(.99726 1.0027)" x="-47.562382" y="33.546619" fill="#000000" font-family="sans-serif" font-size="4.7042px" font-weight="bold" stroke-width=".1176" style="line-height:1.25" xml:space="preserve"><tspan id="do" x="-47.562382" y="33.546619" fill="#ffffff" font-family="sans-serif" font-weight="bold" stroke-width=".1176">PORTFOLIO</tspan></text>
   <text id="dp" transform="scale(.99726 1.0027)" x="451.49353" y="33.151108" fill="#000000" font-family="sans-serif" font-size="4.7042px" font-weight="bold" stroke-width=".1176" style="line-height:1.25" xml:space="preserve"><tspan id="dq" x="451.49353" y="33.151108" fill="#ffffff" font-family="sans-serif" font-weight="bold" stroke-width=".1176">SERVICES</tspan></text>
   <rect id="dr" x="197.96" y="23.706" width="37.189" height="17.202" fill="#fefcf9" fill-rule="evenodd"/>
  </g>
  <g fill="#ec5071">
   <path id="ds" d="m217.57 23.687 0.0583 17.282 1.2181-0.01048-1e-3 -17.282z"/>
   <path id="dt" d="m225.78 23.673 0.0583 17.241 1.2673-0.02598-0.0512-17.242z"/>
   <path id="du" d="m207.22 23.69 0.10096 17.28 1.1879-0.04096 0.0223-17.25z"/>
   <path id="dv" d="m212.27 30.646-4.9668 10.273 1.1454 0.01539 5.3115-10.308z"/>
   <path id="dw" d="m213.83 30.646 5.0366 10.267-1.2954 0.03181-5.2314-10.32z" display="inline"/>
   <path id="dx" d="m226.69 31.402-9.0509 0.0031 0.16895 0.94802 9.0501 0.0022z" display="inline"/>
  </g>
 </g>
 <g id="dy" transform="translate(82.826 -.83674)" display="none">
  <g>
   <text id="dz" transform="scale(.99726 1.0027)" x="-47.562382" y="33.546619" fill="#000000" font-family="sans-serif" font-size="4.7042px" font-weight="bold" stroke-width=".1176" style="line-height:1.25" xml:space="preserve"><tspan id="ea" x="-47.562382" y="33.546619" fill="#ffffff" font-family="sans-serif" font-weight="bold" stroke-width=".1176">PORTFOLIO</tspan></text>
   <text id="eb" transform="scale(.99726 1.0027)" x="451.49353" y="33.151108" fill="#000000" font-family="sans-serif" font-size="4.7042px" font-weight="bold" stroke-width=".1176" style="line-height:1.25" xml:space="preserve"><tspan id="ec" x="451.49353" y="33.151108" fill="#ffffff" font-family="sans-serif" font-weight="bold" stroke-width=".1176">SERVICES</tspan></text>
   <rect id="ed" x="197.96" y="23.706" width="37.189" height="17.202" fill="#fefcf9" fill-rule="evenodd"/>
  </g>
  <g fill="#8fded7">
   <path id="ee" d="m217.57 23.687 0.0583 17.282 1.2181-0.01048-1e-3 -17.282z"/>
   <path id="ef" d="m225.78 23.673 0.0583 17.241 1.2673-0.02598-0.0512-17.242z"/>
   <path id="eg" d="m207.22 23.69 0.10096 17.28 1.1879-0.04096 0.0223-17.25z"/>
   <path id="eh" d="m212.27 30.646-4.9668 10.273 1.1454 0.01539 5.3115-10.308z"/>
   <path id="ei" d="m213.83 30.646 5.0366 10.267-1.2954 0.03181-5.2314-10.32z" display="inline"/>
   <path id="ej" d="m226.69 31.402-9.0509 0.0031 0.16895 0.94802 9.0501 0.0022z" display="inline"/>
  </g>
 </g>
 <g id="ek" transform="translate(82.826 -.83674)">
  <path id="el" d="m405.7 188.2-23.59 8.9126s0.34286 3.6879-9.5056 5.3516c-9.8484 1.6638-18.215-9.638-28.312 0.68959s-24.3 17.166-24.3 17.166-21.479 2.9914-26.967 5.0992c-5.488 2.1078-16.478 8.3907-16.478 8.3907s-21.869 13.2-25.613 14.289c-3.744 1.0888-34.146 4.3671-34.146 4.3671s-44.863 6.6334-49.062 7.6097c-4.1994 0.97622-44.829 13.438-44.829 13.438s-17.463 5.1898-23.054 9.6821c-4.0804 3.2786-25.216 15.317-36.364 21.597h449.35v-56.158l-10.058-2.85-15.983-14.501s-5.2784-5.2711-10.647-7.6852c-5.3684-2.4141-23.339-8.0329-23.339-8.0329l-14.376-11.639z" fill="#4a2865"/>
  <path id="em" d="m382.11 197.11 21.583 17.39-18.521 7.8895 45.303-3.3333-15.983 16.749 41.459 0.54762-27.837 10.298-17.685-0.25219-51.017-16.632 25.158 29.88-73.464-15.967 46.571 28.784-61.18 2.0299-13.365 1.9975 84.425 14.366-17.659 14.946 162.94-2.9441 1.04-42.194-21.721-6.57s-2.5729-18.576-18.623-22.56c-16.05-3.984-25.691-6.223-25.691-6.223l-21.594-19.522-22.021-14.359-6.8552-4.4284z" fill="url(#f)"/>
  <path id="en" d="m397.37 187.01 8.3326 1.194 32.731 15.725 14.376 11.639 26.544 9.9686 23.425 20.251 10.058 2.85 1.04 12.035-21.721-6.57-7.9395-16.968-36.374-11.815-21.594-19.522z" fill="#ebdaf3" style="mix-blend-mode:normal"/>
 </g>
 <g id="eo" transform="translate(82.826 -.83674)" fill="#4f305e" fill-rule="evenodd" opacity=".381">
  <path id="ep" transform="matrix(.082084 0 0 .074205 -82.866 1.3295)" d="m5952 2511.2-287.38 120.11s4.1772 49.698-115.8 72.119c-119.98 22.421-221.9-129.88-344.91 9.293-123.01 139.18-296.04 231.33-296.04 231.33s-261.67 40.313-328.53 68.717c-66.859 28.404-200.74 113.07-200.74 113.07s-266.42 177.88-312.04 192.56-415.99 58.852-415.99 58.852-546.54 89.393-597.7 102.55c-51.16 13.156-546.13 181.09-546.13 181.09s-212.74 69.938-280.86 130.48c-49.71 44.183-307.2 206.41-443 291.04h5474.3v-756.8l-122.53-38.406-194.72-195.42s-64.305-71.034-129.71-103.57c-65.402-32.532-284.33-108.25-284.33-108.25l-175.14-156.85z" filter="url(#i)" opacity="1"/>
  <path id="eq" transform="matrix(.31024 0 0 .28046 -82.866 1.3295)" d="m1498.8 696.19 69.568 62.005-59.7 28.13 146.03-11.885-51.517 59.721 133.64 1.9525-89.729 36.717-57.004-0.89924-164.44-59.301 81.092 106.54-236.8-56.93 150.11 102.63-197.2 7.2376-43.08 7.1223 272.13 51.223-56.919 53.292 525.19-10.497 3.3523-150.45-70.014-23.426s-8.2932-66.235-60.028-80.44c-51.735-14.205-82.809-22.189-82.809-22.189l-69.606-69.606-70.982-51.198-22.097-15.79z" filter="url(#k)"/>
  <path id="er" transform="matrix(.31024 0 0 .28046 -80.749 1.8586)" d="m1547.9 660.16 26.859 4.2574 105.5 56.07 46.339 41.5 85.559 35.543 75.508 72.205 32.419 10.162 3.3524 42.911-70.014-23.426-25.591-60.5-117.25-42.129-69.606-69.606z" filter="url(#j)"/>
 </g>
 <g id="es" transform="translate(82.826 -.83674)" display="none">
  <path id="et" d="m65.408 168.27c-3.2145-0.0201-3.3436 2.3967-8.649 2.3967-8.2815 0-15.757 9.1306-15.757 9.1306l-31.683 24.66-22.733 8.8104-19.199 14.624-26.647 8.0858-23.565 3.1805v65.632h408.3c-6.8162-4.7887-23.765-13.403-32.733-19.292-10.392-6.8236-29.373-19.429-65.132-37.619-35.759-18.19-17.305-5.2725-32.079-9.9403-14.775-4.6678-31.455-3.8724-50.065-12.771-18.61-8.8987-21.908-14.083-28.841-17.104-6.9323-3.0218-10.252-11.13-16.768-20.16-6.5168-9.0303-10.192-9.7598-24.672-16.443-5.2038-2.4018-7.978-3.1799-9.7813-3.1911z" display="inline" fill="#3d1b53"/>
  <path id="eu" d="m65.408 168.27-2.8454 34.5 24.786 10.82-23.8 11.12-30.382-8.9409 20.076 20.254 5.8042 50.016 50.463-35.897 64.262 5.903-13.769-23.647 51.906 18.794 7.1167 22.428 46.801 17.031 26.066 15.605 33.586-1.4647-96.437-57.419-23.023-11.472-7.2282 2.3406-19.933-4.9915-36.631-9.0622-33.025-20.975-18.078-26.881z" fill="url(#e)" style="mix-blend-mode:normal"/>
  <path id="ev" transform="matrix(.31024 0 0 .28046 -82.866 .80029)" d="m476.64 604.21s70.551 18.823 94.623 49.61c24.073 30.787 34.526 65.876 42.825 74.175 8.2984 8.2984 26.208 10.188 37.904 21.884 11.696 11.696 60.237 44.386 60.237 44.386l91.827 36.061 58.867 31.501-2.1112-20.602-74.552-31.406-68.86-21.582-71.403-50.791-23.789-15.627-55.164-97.79-76.975-29.006-13.955-1.1674z" display="inline" fill="none" filter="url(#c)" stroke="#000" stroke-width=".26458px"/>
 </g>
 <g id="ew" transform="translate(82.826 -.83674)" display="none" fill="#492666" opacity=".42695">
  <path id="ex" transform="matrix(.082084 0 0 .074205 -82.866 .80029)" d="m1806.4 2242.6c-39.162-0.2699-40.734 32.299-105.37 32.299-100.89 0-191.96 123.04-191.96 123.04l-385.98 332.32-276.94 118.73-233.89 197.08-324.63 108.96-287.08 42.861v884.47h4974.2c-83.039-64.532-289.52-180.62-398.77-259.97-126.6-91.956-357.84-261.83-793.48-506.96-435.64-245.13-210.82-71.053-390.81-133.96s-383.2-52.185-609.93-172.11-266.9-189.78-351.36-230.5c-84.454-40.722-124.89-149.99-204.28-271.68-79.392-121.69-124.17-131.52-300.57-221.59-63.396-32.367-97.194-42.852-119.16-43.004z" display="inline" filter="url(#n)" opacity="1"/>
  <path id="ey" transform="matrix(.31024 0 0 .28046 -82.866 1.8586)" d="m477.93 593.36-9.1716 123.01 79.892 38.579-76.715 39.65-97.931-31.879 64.712 72.216 18.709 178.33 162.66-127.99 207.14 21.047-44.381-84.316 167.31 67.011 22.939 79.97 150.86 60.724 84.02 55.641 108.26-5.2227-310.85-204.73-74.212-40.905-23.299 8.3454-64.25-17.798-118.07-32.312-106.45-74.788-58.27-95.846z" filter="url(#m)"/>
 </g>
 <g id="ez" transform="translate(82.826 -.83674)" display="none">
  <path id="fa" d="m-82.825 304.26c23.12-20.901 43.447-10.524 43.447-10.524s11.227 5.7282 22.201 0c10.975-5.7281 25.202-22.466 37.388-19.514 12.186 2.9518 26.199-6.3462 26.199-6.3462s3.5365-4.0804 11.526-6.0157c7.9893-1.9352 11.362 11.909 30.263 7.3305 18.9-4.5782 14.081-14.962 29.197-7.0724 15.116 7.8896 28.576 25.833 28.576 25.833l20.216 18.276z" fill="#120a22"/>
 </g>
 <g id="fb">
  <path id="fc" transform="translate(82.826 -.83674)" d="m513.87 260.67s-18.312 1.4684-28.92 7.0054c-10.609 5.537-20.552 18.579-20.552 18.579l-23.036 12.023-9.4479-5.2035-7.4807-13.645-7.9613 26.709-5.3881-18.179-2.9636 9.9985-5.7479-5.1962-4.4979 7.0428-21.755 5.2697 136.71-0.28077z" fill="#120a22"/>
  <path id="fd" transform="matrix(.31024 0 0 .28046 -.040319 .49272)" d="m1923.5 922.81s-59.024 5.2355-93.22 24.978c-34.195 19.743-66.245 66.245-66.245 66.245l-74.251 42.869-30.454-18.554-24.113-48.651-25.662 95.232-17.368-64.817-9.5525 35.65-18.527-18.527-14.498 25.112-70.123 18.789 440.66-1.0011z" fill="#3b1f53" filter="url(#p)" opacity=".59258"/>
 </g>
 <g id="fe" transform="translate(82.826 -.83674)" display="none" filter="url(#l)" opacity=".59258">
  <path id="ff" transform="matrix(.31024 0 0 .28046 -82.866 .80029)" d="m0.13229 1080.1c74.522-74.522 140.04-37.525 140.04-37.525s36.187 20.424 71.562 0c35.376-20.424 81.235-80.103 120.51-69.579 39.279 10.525 84.448-22.628 84.448-22.628s11.399-14.549 37.151-21.449 36.625 42.461 97.546 26.137c60.921-16.324 45.387-53.348 94.111-25.217s92.108 92.108 92.108 92.108l65.163 65.163z" fill="#3b1f53" filter="url(#o)"/>
 </g>
</svg>
